<svg width="69" height="84" viewBox="0 0 69 84" fill="none" xmlns="http://www.w3.org/2000/svg">
<path d="M1.75072 0C1.04298 0 0.515709 0.629183 0.578572 1.39798L6.54475 74.4026C6.60762 75.1716 7.2167 75.9697 7.89888 76.1763L33.2164 83.845C33.8984 84.0515 35.0142 84.0515 35.6963 83.8454L61.0909 76.1642C61.7729 75.9578 62.3827 75.1598 62.4454 74.391L68.4215 1.39798C68.4849 0.629183 67.957 0 67.2492 0H1.75072ZM55.7157 16.7433C55.6593 17.4291 55.5619 18.6197 55.499 19.3887L55.3418 21.3041C55.2785 22.0728 55.1884 23.1722 55.1409 23.7469C55.0935 24.3218 55.0486 24.7921 55.0403 24.7921C55.0323 24.7921 54.4466 24.7921 53.739 24.7921H35.7867C35.079 24.7921 34.4941 24.7921 34.4864 24.7921C34.4788 24.7921 33.8933 24.7921 33.1856 24.7921H23.7307C23.023 24.7921 22.4957 25.4213 22.5586 26.1901L23.1101 32.9151C23.1729 33.6837 23.8037 34.3131 24.5113 34.3131H33.1857C33.8935 34.3131 34.4788 34.3131 34.4866 34.3131C34.4944 34.3131 35.0793 34.3131 35.7869 34.3131H50.697C51.4047 34.3131 52.4999 34.3131 53.1306 34.3131C53.7609 34.3131 54.2303 34.8743 54.1731 35.5601C54.1157 36.2459 54.0176 37.4368 53.9549 38.2055L52.1817 59.8864C52.1183 60.6554 52.0383 61.6377 52.0039 62.0695C51.9687 62.501 51.3822 63.0228 50.7002 63.2292L35.7401 67.7544C35.0581 67.9605 34.4916 68.1311 34.4809 68.1338C34.4704 68.1362 33.904 67.9692 33.2217 67.763L18.2457 63.2296C17.5636 63.0232 16.9543 62.2252 16.8915 61.4562L15.9275 49.6527C15.8647 48.8837 16.3925 48.2545 17.1003 48.2545H18.467C19.1748 48.2545 20.3328 48.2545 21.0404 48.2545H23.0785C23.7862 48.2545 24.4164 48.8837 24.4797 49.6527L24.8578 54.2733C24.9206 55.0423 25.5308 55.8359 26.2142 56.0372L33.2192 58.1009C33.9022 58.3022 34.4637 58.467 34.4669 58.467C34.4701 58.467 35.0313 58.3019 35.7145 58.1006L42.7323 56.0319C43.4152 55.8306 44.0259 55.0367 44.0892 54.2681L44.8502 45.0105C44.9135 44.2415 44.3863 43.6123 43.6785 43.6123H35.7869C35.0791 43.6123 34.4943 43.6123 34.4866 43.6123C34.4789 43.6123 33.8935 43.6123 33.1857 43.6123H16.7187C16.011 43.6123 15.3809 42.983 15.318 42.2143L13.4507 19.3889C13.3879 18.6199 13.2904 17.4296 13.234 16.7435C13.1782 16.0577 13.7111 15.4964 14.4188 15.4964H33.1857C33.8935 15.4964 34.4788 15.4964 34.4866 15.4964C34.4944 15.4964 35.0793 15.4964 35.7869 15.4964H54.5311C55.2387 15.4961 55.7718 16.0572 55.7157 16.7433Z" fill="#DD512A"/>
</svg>
