<svg width="76" height="79" viewBox="0 0 76 79" fill="none" xmlns="http://www.w3.org/2000/svg">
<path d="M5.12238 19.1637C-1.49449 29.4806 -0.670131 42.9034 4.38368 53.8665C4.504 54.1294 4.62992 54.3878 4.75421 54.6471C4.83339 54.8102 4.90814 54.9785 4.99057 55.1398C5.03686 55.2369 5.08921 55.3315 5.13772 55.4243C5.22412 55.5995 5.31199 55.7652 5.40164 55.936C5.55867 56.2361 5.71983 56.5345 5.88408 56.8328C5.9752 56.9967 6.06514 57.1607 6.15906 57.3245C6.34131 57.6438 6.52797 57.9605 6.71921 58.2751C6.79883 58.4097 6.87624 58.5442 6.95792 58.6741C7.2214 59.1009 7.49079 59.5268 7.76857 59.9448C7.7758 59.9552 7.78376 59.9666 7.79187 59.977C7.83581 60.0446 7.88461 60.1105 7.92899 60.1774C8.16918 60.5373 8.41748 60.8921 8.66769 61.2442C8.75999 61.3718 8.85362 61.5001 8.94636 61.6284C9.16989 61.9338 9.39769 62.2366 9.62918 62.5391C9.71587 62.6518 9.80272 62.7654 9.8903 62.8764C10.2008 63.273 10.5178 63.6684 10.8422 64.0561C10.8478 64.0632 10.8553 64.071 10.8614 64.0779C10.8745 64.0944 10.8861 64.1048 10.8978 64.1204C11.2141 64.4952 11.5374 64.8622 11.8653 65.2282C11.9668 65.3408 12.0709 65.4545 12.1751 65.5673C12.429 65.8439 12.6869 66.1155 12.9474 66.3887C13.0533 66.4972 13.1581 66.609 13.2632 66.7139C13.6114 67.0696 13.9629 67.4182 14.3215 67.7583C14.3278 67.7652 14.3322 67.7704 14.3383 67.773C14.399 67.832 14.4621 67.8885 14.5221 67.943C14.8384 68.2404 15.1598 68.5354 15.4836 68.8252C15.6156 68.9406 15.749 69.0551 15.8819 69.1695C16.1465 69.3995 16.4138 69.6258 16.6834 69.8486C16.8257 69.9665 16.9684 70.0846 17.1118 70.2026C17.4089 70.4386 17.7083 70.6734 18.011 70.9017C18.1214 70.9884 18.228 71.0715 18.3389 71.1541C18.3693 71.1774 18.3973 71.2018 18.4284 71.2242C18.7155 71.4375 19.0084 71.645 19.3014 71.8506C19.4273 71.9414 19.5525 72.0352 19.6796 72.1236C20.1293 72.4317 20.5855 72.7369 21.0467 73.0328C21.1723 73.1099 21.2985 73.1864 21.4245 73.2635C21.7634 73.4759 22.1045 73.6842 22.4507 73.888C22.6373 73.9972 22.8296 74.1004 23.0179 74.2045C23.2625 74.3442 23.5048 74.4846 23.7526 74.6182C23.8089 74.6494 23.8673 74.679 23.9229 74.7076C24.022 74.7596 24.1227 74.811 24.2231 74.8655C24.6076 75.065 24.9954 75.2601 25.3864 75.45C25.47 75.4898 25.5504 75.5298 25.6331 75.5689C26.0814 75.7813 26.5334 75.9868 26.9908 76.1822C27.1003 76.2298 27.2111 76.2757 27.3215 76.3236C27.7441 76.4997 28.1723 76.6739 28.6019 76.838C28.6566 76.8588 28.7091 76.8778 28.7629 76.8977C29.235 77.0773 29.7116 77.2429 30.1917 77.4052C30.3059 77.4417 30.4211 77.4817 30.5362 77.518C31.0247 77.6775 31.5069 77.8675 32.0114 77.9689C64.01 84.2992 73.3049 57.1071 73.3049 57.1071C65.4989 68.1406 51.6418 71.0516 38.5129 67.8107C38.0151 67.6893 37.5329 67.5211 37.0475 67.3649C36.9241 67.3251 36.8034 67.2853 36.6819 67.2445C36.2081 67.0866 35.7384 66.921 35.2711 66.7467C35.2071 66.7224 35.1424 66.6965 35.0772 66.671C34.6588 66.5115 34.2454 66.3433 33.8331 66.1705C33.7168 66.1203 33.6004 66.0726 33.4845 66.0222C33.0329 65.8288 32.584 65.6266 32.1413 65.416C32.0498 65.3742 31.9626 65.3301 31.8731 65.2866C31.4923 65.1 31.1156 64.9119 30.7394 64.7158C30.6315 64.6587 30.5227 64.6032 30.4124 64.5451C30.1181 64.3898 29.8263 64.2241 29.5361 64.0619C29.3415 63.9509 29.1436 63.8451 28.9514 63.7297C28.5963 63.5233 28.2478 63.309 27.9011 63.0905C27.7832 63.0185 27.6645 62.9498 27.5461 62.8761C27.0847 62.5813 26.629 62.2759 26.1781 61.9662C26.0538 61.8805 25.9318 61.7885 25.8092 61.7001C25.4821 61.471 25.1563 61.2386 24.836 60.9974C24.7297 60.9211 24.6267 60.8361 24.5223 60.7589C24.2123 60.5221 23.9062 60.2811 23.6019 60.0373C23.4644 59.9271 23.3281 59.8125 23.1942 59.7023C22.9156 59.4709 22.6382 59.2384 22.364 58.998C22.2404 58.8913 22.1161 58.7838 21.9937 58.6762C21.6447 58.3649 21.3002 58.0526 20.9596 57.7316C20.924 57.6969 20.8853 57.6639 20.8465 57.6284C20.4786 57.2772 20.1165 56.9171 19.7595 56.5554C19.6556 56.4479 19.5549 56.3438 19.4533 56.2353C19.1883 55.9631 18.9281 55.6871 18.6723 55.4053C18.5699 55.2943 18.4667 55.1841 18.366 55.074C18.0403 54.7114 17.7208 54.3454 17.4075 53.9733C17.3918 53.9551 17.3755 53.9386 17.3603 53.9186C17.0288 53.5256 16.705 53.1241 16.388 52.7181C16.3021 52.6071 16.2186 52.4996 16.1334 52.3902C15.8972 52.0813 15.6629 51.7681 15.4342 51.4517C15.3478 51.3389 15.262 51.2217 15.1771 51.1055C14.9021 50.7178 14.6327 50.332 14.3688 49.938C7.07927 39.1529 4.4605 24.2753 10.2862 12.0571" fill="#1B75BB"/>
<path d="M25.6616 10.4715C20.8764 17.9424 21.1364 27.9416 24.8689 35.8429C25.495 37.1673 26.1986 38.452 26.9857 39.6759C27.7024 40.7905 28.4968 42.1167 29.4481 43.0117C29.7936 43.4237 30.1538 43.8262 30.522 44.221C30.6152 44.3251 30.7103 44.4232 30.8054 44.5254C31.1623 44.9002 31.5261 45.2705 31.9019 45.6296C31.9174 45.6435 31.9311 45.6598 31.9467 45.6712C31.9507 45.6763 31.9547 45.6782 31.957 45.6834C32.3728 46.0781 32.8021 46.4588 33.2382 46.8327C33.3349 46.9125 33.4309 46.9966 33.5288 47.079C33.9657 47.4424 34.4116 47.8008 34.8688 48.1408C34.8823 48.1511 34.894 48.1616 34.9076 48.1738C35.1091 48.3238 35.3149 48.4651 35.5189 48.6102C35.6172 48.6796 35.7104 48.7533 35.8092 48.8183C36.1353 49.0448 36.4661 49.266 36.8022 49.4784C36.8497 49.5106 36.8966 49.5365 36.9426 49.5661C37.2323 49.7473 37.5262 49.926 37.8209 50.0986C37.9237 50.1619 38.0284 50.2165 38.1332 50.2755C38.3367 50.391 38.5402 50.5079 38.7476 50.6207C38.7775 50.6364 38.81 50.6519 38.8399 50.6658C39.2616 50.8912 39.6874 51.1083 40.1215 51.3129C40.2139 51.357 40.3098 51.3968 40.4046 51.4394C40.7512 51.599 41.1022 51.7553 41.454 51.9018C41.6035 51.9634 41.7546 52.0215 41.9041 52.0815C42.2235 52.2099 42.545 52.3276 42.8684 52.4457C43.0147 52.4959 43.1581 52.5481 43.3045 52.5965C43.7646 52.7509 44.2191 52.9469 44.6988 53.0336C69.4046 57.4747 75.1088 36.8375 75.1088 36.8375C69.9666 44.8695 60.0097 48.7044 49.3844 45.7118C48.9127 45.5775 48.4477 45.4308 47.9858 45.2729C47.8442 45.2262 47.7052 45.1758 47.5651 45.1254C47.2364 45.0101 46.9098 44.8871 46.5861 44.7596C46.4377 44.7013 46.2897 44.6425 46.1443 44.5817C45.7893 44.4334 45.4386 44.2807 45.0908 44.1202C44.996 44.0761 44.8997 44.0369 44.807 43.9902C44.3709 43.7846 43.9415 43.5669 43.5177 43.3414C43.2998 43.2249 43.086 43.1029 42.8718 42.984C42.7478 42.9138 42.623 42.8444 42.4987 42.7749C42.2233 42.6126 41.9503 42.4453 41.6804 42.2744C41.6169 42.2346 41.5501 42.1973 41.4854 42.1546C41.1505 41.9422 40.821 41.7237 40.4947 41.4989C40.394 41.4287 40.2973 41.3532 40.1965 41.282C39.9811 41.1304 39.766 40.9768 39.5549 40.8215C39.0996 40.4816 38.6562 40.1242 38.2196 39.7616C38.1189 39.6757 38.0178 39.5916 37.919 39.5057C33.2677 35.5217 29.582 30.0771 27.8293 23.9047C25.9925 17.5016 26.3879 10.316 29.5704 4.48364" fill="#1B75BB"/>
<path d="M42.9359 3.9774C40.1151 8.48094 39.8381 14.074 41.7954 19.0484C43.8593 24.3283 48.0889 28.4701 53.026 30.433C53.2294 30.5154 53.4325 30.5892 53.6392 30.6647C53.729 30.695 53.8182 30.728 53.9093 30.7566C54.2001 30.8563 54.4891 30.9718 54.7897 31.0332C68.4313 33.893 72.1314 23.4383 73.1165 21.8994C69.8748 26.9624 64.4283 28.1777 57.7448 26.4186C57.2166 26.278 56.6362 26.0717 56.1276 25.8756C55.4752 25.624 54.8325 25.336 54.2073 25.0108C53.0208 24.3923 51.8898 23.6412 50.8404 22.7824C44.8603 17.8591 41.1446 8.46783 45.0471 0.81897" fill="#1B75BB"/>
</svg>
